#!OML:ASF X:\für Bonn\!DataBase\2005_08_11_Bastian_Final\c3d\Bastian.ASF
:FULLY-SPECIFIED
:DEGREES
64
root -2.41198 17.0175 2.542 139.229 -10.2719 -166.07
lowerback 45.5099 -4.84933 5.51661
upperback 12.7356 -10.1441 7.81635
thorax -5.57279 -8.18329 10.0582
lowerneck -9.27084 -3.78952 -6.94049
upperneck -6.20074 -3.80325 6.07911
head -0.0969375 -1.51791 3.05839
rclavicle -6.24184e-014 6.99722e-014
rhumerus -48.5562 36.3032 -101.426
rradius 39.2176
rwrist -36.971
rhand -34.6977 3.76478
rfingers 7.12502
rthumb -7.85297 -26.0694
lclavicle -6.24184e-014 6.99722e-014
lhumerus 44.094 -23.3744 75.2496
lradius 101.859
lwrist -11.192
lhand -60.6215 -2.78254
lfingers 7.12502
lthumb -32.7434 24.2715
rfemur -98.4239 -6.91444 38.5186
rtibia 134.716
rfoot 1.827 0.536558
rtoes -3.98528
lfemur 29.1316 -6.59385 -10.7895
ltibia 27.8036
lfoot -11.6432 -4.62163
ltoes -3.3997
65
root -2.42136 17.0129 2.54738 139.295 -10.0767 -166.071
lowerback 45.4422 -4.77724 5.5825
upperback 12.761 -10.0493 7.87664
thorax -5.53336 -8.1493 10.0423
lowerneck -9.22845 -3.79347 -6.9068
upperneck -6.33189 -3.80359 6.00809
head -0.149105 -1.51537 3.02916
rclavicle 4.81059e-014 -2.38542e-014
rhumerus -47.9872 36.3805 -101.062
rradius 39.1012
rwrist -36.859
rhand -34.7168 3.78301
rfingers 7.12502
rthumb -7.87141 -26.0505
lclavicle 4.81059e-014 -2.38542e-014
lhumerus 44.058 -23.4409 75.0447
lradius 101.721
lwrist -11.0467
lhand -60.6344 -2.59312
lfingers 7.12502
lthumb -32.7556 24.4583
rfemur -98.0082 -7.11832 38.6644
rtibia 134.642
rfoot 1.40183 0.307686
rtoes -4.31979
lfemur 29.0552 -6.53324 -10.7643
ltibia 27.9269
lfoot -11.7315 -4.50792
ltoes -3.14931
66
root -2.43104 17.009 2.55259 139.354 -9.83342 -166.073
lowerback 45.3559 -4.69602 5.68124
upperback 12.7995 -9.93562 7.92955
thorax -5.47944 -8.10709 9.99027
lowerneck -9.17341 -3.801 -6.88051
upperneck -6.48003 -3.80725 5.95184
head -0.20806 -1.51385 3.00666
rclavicle -3.18055e-014 7.71285e-014
rhumerus -47.4182 36.4594 -100.687
rradius 39.0268
rwrist -36.7452
rhand -34.7622 3.77738
rfingers 7.12502
rthumb -7.91522 -26.0544
lclavicle -3.18055e-014 7.71285e-014
lhumerus 44.0399 -23.5304 74.8274
lradius 101.505
lwrist -10.9375
lhand -60.6865 -2.32955
lfingers 7.12502
lthumb -32.8051 24.7116
rfemur -97.4079 -7.3449 38.8233
rtibia 134.568
rfoot 1.06603 0.15009
rtoes -4.5415
lfemur 29 -6.44565 -10.7214
ltibia 28.0467
lfoot -11.8284 -4.36543
ltoes -3.11815
67
root -2.44089 17.0065 2.55905 139.467 -9.62487 -166.085
lowerback 45.2195 -4.62616 5.74127
upperback 12.8218 -9.84106 7.98668
thorax -5.4265 -8.06791 9.96657
lowerneck -9.13578 -3.80084 -6.89909
upperneck -6.58966 -3.79844 5.92119
head -0.250785 -1.50598 3.00138
rclavicle -1.24042e-013 -3.18055e-014
rhumerus -46.8547 36.5523 -100.285
rradius 38.9643
rwrist -36.5784
rhand -34.8109 3.73302
rfingers 7.12502
rthumb -7.96228 -26.097
lclavicle -1.24042e-013 -3.18055e-014
lhumerus 43.903 -23.5629 74.6749
lradius 101.327
lwrist -10.8473
lhand -60.6761 -1.94633
lfingers 7.12502
lthumb -32.7952 25.0969
rfemur -96.7222 -7.6504 38.9558
rtibia 134.506
rfoot 0.845927 0.0445209
rtoes -3.49287
lfemur 28.8922 -6.37529 -10.707
ltibia 28.1429
lfoot -11.8981 -4.24369
ltoes -2.74696
68
root -2.45052 17.0083 2.56689 139.621 -9.41481 -166.103
lowerback 45.0189 -4.56632 5.82587
upperback 12.8399 -9.7362 8.01714
thorax -5.36872 -8.01292 9.8906
lowerneck -9.06975 -3.80017 -6.8877
upperneck -6.69838 -3.79483 5.88785
head -0.298409 -1.50229 2.98977
rclavicle 4.65156e-014 -1.04958e-013
rhumerus -46.2687 36.6201 -99.899
rradius 38.8764
rwrist -36.4371
rhand -34.8712 3.74399
rfingers 7.12502
rthumb -8.02041 -26.0838
lclavicle 4.65156e-014 -1.04958e-013
lhumerus 43.7545 -23.6363 74.5343
lradius 101.038
lwrist -10.7545
lhand -60.668 -1.76678
lfingers 7.12502
lthumb -32.7875 25.278
rfemur -95.9537 -7.99885 39.0617
rtibia 134.454
rfoot 0.736549 -0.0209525
rtoes -2.15817
lfemur 28.7508 -6.33269 -10.7256
ltibia 28.2214
lfoot -11.9631 -4.05661
ltoes -2.48727
69
root -2.45997 17.01 2.57494 139.789 -9.21583 -166.136
lowerback 44.7756 -4.49083 5.90406
upperback 12.877 -9.61935 8.04176
thorax -5.27993 -7.95211 9.79888
lowerneck -9.06206 -3.82001 -6.83787
upperneck -6.77532 -3.81891 5.84136
head -0.32517 -1.5124 2.96439
rclavicle 3.02153e-014 7.95139e-015
rhumerus -45.642 36.6636 -99.4814
rradius 38.8019
rwrist -36.3135
rhand -34.9813 3.70797
rfingers 7.12502
rthumb -8.12671 -26.1158
lclavicle 3.02153e-014 7.95139e-015
lhumerus 43.6192 -23.7446 74.3811
lradius 100.742
lwrist -10.6593
lhand -60.675 -1.51864
lfingers 7.12502
lthumb -32.7942 25.5248
rfemur -95.0994 -8.40694 39.1552
rtibia 134.419
rfoot 0.665422 -0.130378
rtoes -2.22687
lfemur 28.5675 -6.29073 -10.7666
ltibia 28.3649
lfoot -12.0611 -3.87183
ltoes -2.27879
